<svg xmlns="http://www.w3.org/2000/svg" viewBox="0 0 32 32" width="32" height="32">
  <defs>
    <linearGradient id="bg" x1="0%" y1="0%" x2="100%" y2="100%">
      <stop offset="0%" style="stop-color:#1a0828"/>
      <stop offset="100%" style="stop-color:#08080f"/>
    </linearGradient>
    <linearGradient id="body" x1="0%" y1="0%" x2="100%" y2="100%">
      <stop offset="0%" style="stop-color:#ff6b9d"/>
      <stop offset="100%" style="stop-color:#a855f7"/>
    </linearGradient>
    <linearGradient id="eye" x1="0%" y1="0%" x2="100%" y2="100%">
      <stop offset="0%" style="stop-color:#ffd700"/>
      <stop offset="100%" style="stop-color:#ff9900"/>
    </linearGradient>
    <filter id="glow">
      <feGaussianBlur stdDeviation="0.8" result="blur"/>
      <feMerge><feMergeNode in="blur"/><feMergeNode in="SourceGraphic"/></feMerge>
    </filter>
  </defs>
  <rect width="32" height="32" rx="8" fill="url(#bg)"/>
  <ellipse cx="16" cy="22" rx="8" ry="8" fill="url(#body)" opacity="0.2"/>
  <ellipse cx="16" cy="15" rx="8" ry="7.5" fill="#0f0f1a"/>
  <ellipse cx="16" cy="15" rx="7.5" ry="7" fill="none" stroke="url(#body)" stroke-width="1"/>
  <path d="M10 9 L8 4 L12 8Z" fill="url(#body)"/>
  <path d="M22 9 L24 4 L20 8Z" fill="url(#body)"/>
  <circle cx="12.5" cy="14.5" r="3.5" fill="#0a0a14"/>
  <circle cx="12.5" cy="14.5" r="3.2" fill="none" stroke="url(#eye)" stroke-width="0.8" filter="url(#glow)"/>
  <circle cx="12.5" cy="14.5" r="2" fill="url(#eye)" opacity="0.9" filter="url(#glow)"/>
  <circle cx="12.5" cy="14.5" r="1.1" fill="#0a0a14"/>
  <circle cx="13.2" cy="13.8" r="0.5" fill="#fff" opacity="0.9"/>
  <circle cx="19.5" cy="14.5" r="3.5" fill="#0a0a14"/>
  <circle cx="19.5" cy="14.5" r="3.2" fill="none" stroke="url(#eye)" stroke-width="0.8" filter="url(#glow)"/>
  <circle cx="19.5" cy="14.5" r="2" fill="url(#eye)" opacity="0.9" filter="url(#glow)"/>
  <circle cx="19.5" cy="14.5" r="1.1" fill="#0a0a14"/>
  <circle cx="20.2" cy="13.8" r="0.5" fill="#fff" opacity="0.9"/>
  <path d="M14.8 18.5 L16 20.5 L17.2 18.5Z" fill="#ffd700" opacity="0.8"/>
  <circle cx="5" cy="5" r="0.7" fill="#ffd700" opacity="0.7" filter="url(#glow)"/>
  <circle cx="27" cy="4" r="0.5" fill="#a855f7" opacity="0.8" filter="url(#glow)"/>
  <circle cx="28" cy="10" r="0.4" fill="#ff6b9d" opacity="0.6"/>
</svg>
